
 
http://www.imdb.com/title/tt1606378/


[b]John McClane travels to Russia to help out his seemingly wayward son, Jack, only to discover that Jack is a CIA operative working to prevent a nuclear-weapons heist, causing the father and son to team up against underworld forces. 



Director:
 John Moore

Writers:
 Skip Woods, Roderick Thorp (certain original characters)

Stars:
 Bruce Willis, Jai Courtney, Sebastian Koch

Genres:
 Action | Crime | Thriller 

Country:
USA

 [/b]



A.Good.Day.to.Die.Hard.2013.DVDRip.XviD-SPARKS

 Release.Date: 21.05.2013
 Video: XVID 850Kbps
 Frame.Rate: 23.976
 Resolution: 640x352
 Audio: MPEG-1 Stereo 128kbps VBR
 Language: English
 Length: 1h 38m
 Source: Retail DVD
 Size: 700MB


Format                                   : AVI
Format/Info                              : Audio Video Interleave
File size                                : 702 MiB
Duration                                 : 1h 37mn
Overall bit rate mode                    : Variable
Overall bit rate                         : 1 006 Kbps
Writing application                      : VirtualDubMod 1.5.10.2 (build 2540/release)
Writing library                          : VirtualDubMod build 2540/release

Video
ID                                       : 0
Format                                   : MPEG-4 Visual
Format profile                           : Advanced Simple@L5
Format settings, BVOP                    : 2
Format settings, QPel                    : No
Format settings, GMC                     : No warppoints
Format settings, Matrix                  : Default (H.263)
Codec ID                                 : XVID
Codec ID/Hint                            : XviD
Duration                                 : 1h 37mn
Bit rate                                 : 868 Kbps
Width                                    : 640 pixels
Height                                   : 352 pixels
Display aspect ratio                     : 16:9
Frame rate                               : 19.181 fps
Original frame rate                      : 19.185 fps
Color space                              : YUV
Chroma subsampling                       : 4:2:0
Bit depth                                : 8 bits
Scan type                                : Progressive
Compression mode                         : Lossy
Bits/(Pixel*Frame)                       : 0.201
Stream size                              : 606 MiB (86%)
Writing library                          : XviD 61

Audio
ID                                       : 1
Format                                   : MPEG Audio
Format version                           : Version 1
Format profile                           : Layer 3
Mode                                     : Joint stereo
Mode extension                           : MS Stereo
Codec ID                                 : 55
Codec ID/Hint                            : MP3
Duration                                 : 1h 37mn
Bit rate mode                            : Variable
Bit rate                                 : 128 Kbps
Channel(s)                               : 2 channels
Sampling rate                            : 48.0 KHz
Compression mode                         : Lossy
Stream size                              : 88.1 MiB (13%)
Alignment                                : Aligned on interleaves
Interleave, duration                     : 24 ms (0.46 video frame)
Interleave, preload duration             : 127 ms




screens


    	http://addpix.net/viewer.php?file=40317193179397956432.jpg
    	http://addpix.net/viewer.php?file=04256091241962073659.jpg
    	http://addpix.net/viewer.php?file=22737733276787516766.jpg
    	http://addpix.net/viewer.php?file=43337781013770447697.jpg
    	http://addpix.net/viewer.php?file=10698744335083093091.jpg
    	http://addpix.net/viewer.php?file=44108668716434747934.jpg